<svg width="25" height="16" fill="none" xmlns="http://www.w3.org/2000/svg"><g clip-path="url('#clip0_104_150')"><path d="M22.106 0H2.165A1.997 1.997 0 0 0 .17 2v12c0 1.105.893 2 1.994 2h19.94a1.997 1.997 0 0 0 1.995-2V2c0-1.105-.893-2-1.994-2Z" fill="#016FD0"/><path fill-rule="evenodd" clip-rule="evenodd" d="M13.894 13.394V7.692l10.118.01v1.574l-1.17 1.254 1.17 1.265v1.608h-1.868l-.992-1.098-.985 1.102-6.273-.013Z" fill="#FFFFFE"/><path fill-rule="evenodd" clip-rule="evenodd" d="M14.57 12.769v-4.45h3.76v1.026h-2.542v.695h2.482v1.008h-2.482v.684h2.543v1.037H14.57Z" fill="#016FD0"/><path fill-rule="evenodd" clip-rule="evenodd" d="m18.312 12.769 2.081-2.227-2.081-2.222h1.61l1.273 1.41 1.275-1.41h1.542v.035l-2.037 2.187 2.037 2.164v.063h-1.558l-1.294-1.424-1.28 1.424h-1.568Z" fill="#016FD0"/><path fill-rule="evenodd" clip-rule="evenodd" d="M14.366 2.632h2.439l.856 1.95v-1.95h3.011l.52 1.462.52-1.462h2.3v5.701h-12.15l2.504-5.701Z" fill="#FFFFFE"/><path fill-rule="evenodd" clip-rule="evenodd" d="M14.828 3.251 12.86 7.697h1.35l.37-.89h2.013l.37.89h1.384l-1.96-4.446h-1.56Zm.169 2.558.59-1.415.59 1.415h-1.18Z" fill="#016FD0"/><path fill-rule="evenodd" clip-rule="evenodd" d="M18.329 7.696V3.25l1.897.006.977 2.733.982-2.74h1.827v4.446l-1.176.01V4.653l-1.109 3.043h-1.073l-1.132-3.054v3.054H18.33Z" fill="#016FD0"/></g><defs><clipPath id="clip0_104_150"><path fill="#fff" transform="translate(.17)" d="M0 0h23.929v16H0z"/></clipPath></defs></svg>