<svg width="34" height="14" fill="none" xmlns="http://www.w3.org/2000/svg"><g clip-path="url('#clip0_1_549')" fill="#8792A2"><path fill-rule="evenodd" clip-rule="evenodd" d="M34.045 7.233c0-2.392-1.173-4.28-3.414-4.28-2.25 0-3.613 1.888-3.613 4.262 0 2.813 1.608 4.233 3.915 4.233 1.126 0 1.977-.252 2.62-.607V8.97c-.643.318-1.38.515-2.317.515-.917 0-1.73-.318-1.835-1.42h4.625c0-.122.019-.608.019-.833Zm-4.672-.887c0-1.056.653-1.496 1.248-1.496.577 0 1.192.44 1.192 1.496h-2.44ZM23.368 2.953c-.927 0-1.522.43-1.853.73l-.123-.58H19.31V14l2.364-.496.01-2.644c.34.242.841.588 1.674.588 1.692 0 3.234-1.346 3.234-4.308-.01-2.71-1.57-4.187-3.225-4.187Zm-.567 6.44c-.558 0-.89-.197-1.116-.44l-.01-3.467c.246-.271.587-.458 1.126-.458.86 0 1.456.953 1.456 2.177 0 1.253-.586 2.187-1.456 2.187ZM16.058 2.402l2.373-.505V0l-2.373.495v1.907Z"/><path d="M18.431 3.112h-2.373v8.177h2.373V3.112Z"/><path fill-rule="evenodd" clip-rule="evenodd" d="m13.514 3.804-.151-.692H11.32v8.177h2.364V5.747c.558-.72 1.504-.588 1.797-.486V3.112c-.303-.112-1.41-.318-1.967.692ZM8.785 1.084l-2.307.486-.01 7.486c0 1.383 1.05 2.402 2.45 2.402.775 0 1.343-.14 1.655-.309V9.252c-.303.122-1.797.552-1.797-.831V5.103h1.797v-1.99H8.776l.01-2.029ZM2.393 5.486c0-.365.302-.505.803-.505.72 0 1.627.215 2.346.598V3.383a6.302 6.302 0 0 0-2.346-.43C1.276 2.953 0 3.943 0 5.598c0 2.58 3.594 2.168 3.594 3.28 0 .43-.379.57-.908.57-.785 0-1.788-.317-2.582-.747v2.224c.88.374 1.768.533 2.582.533 1.967 0 3.32-.963 3.32-2.636-.01-2.785-3.613-2.29-3.613-3.336Z"/></g><defs><clipPath id="clip0_1_549"><path fill="#fff" d="M0 0h34v14H0z"/></clipPath></defs></svg>