<svg width="25" height="17" fill="none" xmlns="http://www.w3.org/2000/svg"><g clip-path="url('#clip0_104_180')" fill="#697386"><path opacity=".2" d="M16.009 1.567H1.549c-.675 0-1.469.78-1.469 1.47v11.02c0 .69.794 1.47 1.47 1.47h18.367c.676 0 1.47-.78 1.47-1.47V8.525a4.394 4.394 0 0 1-2.204 1.065v.059c0 .485-.265.735-.735.735H2.285c-.47 0-.735-.25-.735-.735v-.735c0-.485.264-.734.735-.734h12.879a4.393 4.393 0 0 1 .845-6.613Z"/><path d="M14.29 3.771H.08v2.205h14.018a4.438 4.438 0 0 1 .191-2.205Z"/></g><path d="M18.893 10.286a5.125 5.125 0 0 1-3.628-1.507 5.15 5.15 0 0 1 0-7.273 5.125 5.125 0 0 1 7.256 0 5.149 5.149 0 0 1 0 7.273 5.125 5.125 0 0 1-3.628 1.507Zm-2.038-7.274h-.579l-1.414.72v.735l1.121-.588v3.394h.88v-4.26h-.008Zm1.686.588c.418 0 .711.235.711.573 0 .367-.345.625-.843.625h-.22v.624h.264c.528 0 .887.265.887.647 0 .367-.352.617-.85.617-.367 0-.733-.118-1.114-.346v.735c.41.176.82.272 1.224.272.96 0 1.62-.492 1.62-1.205 0-.5-.308-.904-.821-1.065.44-.147.725-.537.725-.977 0-.691-.608-1.161-1.488-1.161-.396.004-.788.09-1.15.25v.72c.351-.199.71-.309 1.055-.309Zm3.166 1.602c.535 0 .91.316.91.727 0 .433-.375.735-.91.735-.322 0-.66-.103-1.004-.316v.756c.36.162.726.243 1.085.243.19 0 .366-.03.535-.074a4.04 4.04 0 0 0 .601-2.115l-.014-.309a1.683 1.683 0 0 0-.902-.235 2.79 2.79 0 0 0-.418.03v-.956h1.056a4.128 4.128 0 0 0-.338-.676h-1.48v2.315a3.63 3.63 0 0 1 .88-.125Z" fill="#697386"/><defs><clipPath id="clip0_104_180"><path fill="#fff" transform="translate(.08 1.567)" d="M0 0h23.51v15.429H0z"/></clipPath></defs></svg>