<svg width="25" height="16" fill="none" xmlns="http://www.w3.org/2000/svg"><g clip-path="url('#clip0_104_160')"><path d="M22.032 15.75h.002c.952.008 1.733-.773 1.745-1.746V2.006c-.003-.47-.19-.92-.518-1.25A1.712 1.712 0 0 0 22.03.25H2.095A1.71 1.71 0 0 0 .868.757a1.79 1.79 0 0 0-.519 1.247v11.99c.004.47.19.92.519 1.25.327.328.768.51 1.229.506h19.935Zm-.001.5h-.001.002-.001Z" fill="#fff" stroke="#000" stroke-opacity=".2" stroke-width=".5"/><path d="M12.675 16h9.357c.525.004 1.03-.2 1.405-.57a1.99 1.99 0 0 0 .592-1.4v-2.358A38.555 38.555 0 0 1 12.675 16Z" fill="#F27712"/><path d="M23.204 9.296h-.85l-.957-1.266h-.091v1.266h-.693V6.152h1.023c.8 0 1.262.33 1.262.927 0 .488-.288.802-.808.902l1.114 1.315ZM22.18 7.103c0-.306-.23-.463-.66-.463h-.214v.952h.198c.445 0 .676-.166.676-.489Zm-3.993-.951h1.964v.53H18.88v.703H20.1v.538H18.88v.852h1.27v.53h-1.963V6.152Zm-2.228 3.227-1.502-3.236h.76l.948 2.119.957-2.119h.743L16.347 9.38h-.388Zm-6.28-.008c-1.056 0-1.88-.72-1.88-1.655 0-.91.84-1.647 1.897-1.647.297 0 .545.058.85.19v.729a1.236 1.236 0 0 0-.866-.356c-.66 0-1.164.48-1.164 1.084 0 .637.495 1.092 1.197 1.092.313 0 .553-.1.833-.347v.728a2.118 2.118 0 0 1-.866.182ZM7.585 8.336c0 .613-.504 1.035-1.23 1.035-.528 0-.907-.182-1.23-.596l.455-.389c.156.282.42.422.75.422.314 0 .537-.19.537-.438 0-.141-.066-.249-.206-.331a2.867 2.867 0 0 0-.479-.183c-.652-.206-.875-.43-.875-.868 0-.514.479-.903 1.106-.903.396 0 .751.125 1.048.356l-.363.414a.758.758 0 0 0-.561-.248c-.297 0-.512.149-.512.347 0 .166.124.257.537.398.792.248 1.023.48 1.023.993v-.009ZM4.176 6.152h.693v3.153h-.693V6.152ZM1.948 9.305H.925V6.152h1.023c1.122 0 1.898.645 1.898 1.572 0 .472-.231.919-.635 1.217-.347.248-.735.364-1.271.364h.008Zm.809-2.367c-.231-.182-.495-.248-.95-.248h-.189v2.085h.19c.445 0 .726-.083.949-.248.239-.199.38-.497.38-.803 0-.306-.141-.596-.38-.786Z" fill="#000"/><path d="M12.477 6.069c-.908 0-1.65.728-1.65 1.63 0 .96.71 1.68 1.65 1.68.924 0 1.65-.728 1.65-1.655s-.718-1.655-1.65-1.655Z" fill="#F27712"/></g><defs><clipPath id="clip0_104_160"><path fill="#fff" transform="translate(.1)" d="M0 0h23.929v16H0z"/></clipPath></defs></svg>