<svg width="25" height="16" fill="none" xmlns="http://www.w3.org/2000/svg"><g clip-path="url('#clip0_104_144')"><path d="M22.177 0H2.236A1.997 1.997 0 0 0 .242 2v12c0 1.105.893 2 1.994 2h19.94a1.997 1.997 0 0 0 1.995-2V2c0-1.105-.893-2-1.994-2Z" fill="#252525"/><path d="M9.215 13c2.754 0 4.986-2.239 4.986-5s-2.232-5-4.986-5C6.462 3 4.23 5.239 4.23 8s2.232 5 4.985 5Z" fill="#EB001B"/><path d="M15.197 13c2.754 0 4.986-2.239 4.986-5s-2.232-5-4.986-5c-2.753 0-4.985 2.239-4.985 5s2.232 5 4.986 5Z" fill="#F79E1B"/><path fill-rule="evenodd" clip-rule="evenodd" d="M12.206 4A4.997 4.997 0 0 1 14.2 8a4.997 4.997 0 0 1-1.994 4 4.997 4.997 0 0 1-1.994-4c0-1.636.784-3.088 1.994-4Z" fill="#FF5F00"/></g><defs><clipPath id="clip0_104_144"><path fill="#fff" transform="translate(.242)" d="M0 0h23.929v16H0z"/></clipPath></defs></svg>