<svg width="25" height="16" fill="none" xmlns="http://www.w3.org/2000/svg"><path d="M21.999.25H2.556a1.997 1.997 0 0 0-1.994 2v11.5c0 1.105.893 2 1.994 2H22a1.997 1.997 0 0 0 1.994-2V2.25c0-1.105-.893-2-1.994-2Z" fill="#fff" stroke="#000" stroke-opacity=".2" stroke-width=".5"/><path d="M3.092 5.914a7.167 7.167 0 0 0-1.782-.677l.028-.125h2.729c.37.013.67.125.768.519l.593 2.836.181.854L7.27 5.11h1.794l-2.666 6.167H4.604L3.092 5.913Zm7.291 5.37H8.687l1.06-6.172h1.697l-1.06 6.172Zm6.149-6.021L16.3 6.596l-.153-.066a3.037 3.037 0 0 0-1.264-.236c-.67 0-.97.269-.977.531 0 .29.364.48.957.762.977.44 1.43.979 1.423 1.681-.013 1.28-1.172 2.108-2.952 2.108-.76-.007-1.493-.158-1.891-.328l.237-1.386.223.099c.552.23.915.328 1.592.328.488 0 1.012-.19 1.018-.604 0-.27-.223-.466-.879-.769-.642-.295-1.5-.788-1.486-1.674C12.156 5.84 13.335 5 15.01 5a4.41 4.41 0 0 1 1.522.263Zm2.254 3.834h1.41c-.07-.308-.391-1.786-.391-1.786l-.119-.531c-.084.23-.23.604-.223.59 0 0-.537 1.373-.677 1.727Zm2.093-3.985 1.369 6.172h-1.57s-.154-.71-.203-.926h-2.178l-.356.926h-1.78l2.52-5.66c.175-.4.482-.512.887-.512h1.311Z" fill="#171E6C"/></svg>